# xmcd
#
# Track frame offsets: 
#        150
#        17480
#        28483
#        46672
#        63243
#        78323
#        93391
#        110873
#        122053
#        131900
#        145019
#        159356
#
# Disc length: 2380 seconds
#
# Revision: 0
# Processed by: cddbd v1.5.2PL0 Copyright (c) Steve Scherf et al.
# Submitted via: ExactAudioCopyFreeDBPlugin 1.0
#
DISCID=9d094a0c
DTITLE=Virgis Stakenas ir Jonis - Cia tavo namai CD-05
DYEAR=1989
DGENRE=Country
TTITLE0=Toli
TTITLE1=Karveleli paukstuzele
TTITLE2=Pirmoji karta nuo zagres
TTITLE3=Emigrantas
TTITLE4=88-ju vasara
TTITLE5=Ausra
TTITLE6=Piemenu giesme
TTITLE7=Aukstaitija
TTITLE8=Zvejas
TTITLE9=Giesme gaspadoriska
TTITLE10=Motin
TTITLE11=Namai
EXTD=
EXTT0=
EXTT1=
EXTT2=
EXTT3=
EXTT4=
EXTT5=
EXTT6=
EXTT7=
EXTT8=
EXTT9=
EXTT10=
EXTT11=
PLAYORDER=
